<svg viewBox="0 0 1440 112" fill="none" xmlns="http://www.w3.org/2000/svg">
<path d="M1435.83 90.6291V95.2546C1435.83 102.193 1437.02 105.228 1441 108.408H1360.68C1357.1 105.806 1354.72 102.048 1354.72 95.2546V84.5583C1354.72 79.3547 1352.53 77.7647 1346.17 77.7647H1325.89V108.408H1253.12V2.89062H1363.07C1419.73 2.89062 1439.41 16.9114 1439.41 35.124C1439.41 53.4812 1418.34 61.4311 1396.86 63.8884V64.1775C1425.49 66.0566 1435.83 72.9947 1435.83 90.6291ZM1325.89 50.3012H1352.53C1361.48 50.3012 1364.46 48.1331 1364.46 44.664C1364.46 41.0504 1361.48 39.0267 1352.53 39.0267H1325.89V50.3012Z" fill="#CC2323"/>
<path d="M1239.13 108.408H1074.12V2.89062H1237.94V35.9913H1146.68V44.3749H1235.15V66.4902H1146.68V75.0183H1239.13V108.408Z" fill="#CC2323"/>
<path d="M981.191 35.5577V2.89062H1058.13V108.408H981.191V75.7411H947.394V108.408H870.454V2.89062H947.394V35.5577H981.191Z" fill="#CC2323"/>
<path d="M656.199 58.396V52.9033C656.199 22.9826 687.81 0 757.99 0C826.58 0 855.606 19.369 859.383 51.0242H780.058C778.269 46.2542 772.503 41.9179 757.791 41.9179C742.085 41.9179 734.729 47.4106 734.729 55.0715V56.2278C734.729 63.8887 742.085 69.3814 757.791 69.3814C772.503 69.3814 778.269 65.045 780.058 60.2751H859.383C855.606 91.9303 826.58 111.299 757.99 111.299C687.81 111.299 656.199 88.3167 656.199 58.396Z" fill="#CC2323"/>
<path d="M518.843 45.6758H465.363V2.89062H649.461V45.6758H596.379V108.408H518.843V45.6758Z" fill="#CC2323"/>
<path d="M453.494 2.89062V108.408H375.759V2.89062H453.494Z" fill="#CC2323"/>
<path d="M364.414 108.408H218.885V2.89062H296.818V65.0448H364.414V108.408Z" fill="#CC2323"/>
<path d="M126.238 65.1896H96.4165V47.2661H204.768V108.408H171.964L150.095 79.0658C143.535 99.7357 120.671 111.299 80.5117 111.299C29.6163 111.299 -1.00049 88.8949 -1.00049 59.2632V53.7706C-1.00049 22.9826 30.6103 0 104.767 0C173.555 0 201.587 20.3808 204.768 42.7852H123.455C121.665 40.617 117.093 37.1479 102.381 37.1479C85.0843 37.1479 77.1319 43.0743 77.1319 55.0715V56.2278C77.1319 68.225 84.8855 73.8622 102.182 73.8622C118.286 73.8622 124.846 69.2368 126.238 65.1896Z" fill="#CC2323"/>
</svg>
