<svg viewBox="0 0 1440 112" fill="none" xmlns="http://www.w3.org/2000/svg">
<path d="M1435.83 90.928V95.5534C1435.83 102.492 1437.02 105.527 1441 108.707H1360.68C1357.1 106.105 1354.72 102.347 1354.72 95.5534V84.8571C1354.72 79.6535 1352.53 78.0635 1346.17 78.0635H1325.89V108.707H1253.12V3.18945H1363.07C1419.73 3.18945 1439.41 17.2103 1439.41 35.4229C1439.41 53.78 1418.34 61.73 1396.86 64.1872V64.4763C1425.49 66.3554 1435.83 73.2935 1435.83 90.928ZM1325.89 50.6H1352.53C1361.48 50.6 1364.46 48.4319 1364.46 44.9628C1364.46 41.3492 1361.48 39.3256 1352.53 39.3256H1325.89V50.6Z" fill="#FEC3E9"/>
<path d="M1239.13 108.707H1074.12V3.18945H1237.94V36.2901H1146.68V44.6737H1235.15V66.789H1146.68V75.3172H1239.13V108.707Z" fill="#FEC3E9"/>
<path d="M981.191 35.8565V3.18945H1058.13V108.707H981.191V76.0399H947.394V108.707H870.454V3.18945H947.394V35.8565H981.191Z" fill="#FEC3E9"/>
<path d="M656.199 58.6948V53.2021C656.199 23.2814 687.81 0.298828 757.99 0.298828C826.58 0.298828 855.606 19.6678 859.383 51.323H780.058C778.269 46.5531 772.503 42.2167 757.791 42.2167C742.085 42.2167 734.729 47.7094 734.729 55.3703V56.5266C734.729 64.1875 742.085 69.6802 757.791 69.6802C772.503 69.6802 778.269 65.3438 780.058 60.5739H859.383C855.606 92.2291 826.58 111.598 757.99 111.598C687.81 111.598 656.199 88.6155 656.199 58.6948Z" fill="#FEC3E9"/>
<path d="M518.843 45.9746H465.363V3.18945H649.461V45.9746H596.379V108.707H518.843V45.9746Z" fill="#FEC3E9"/>
<path d="M453.494 3.18945V108.707H375.759V3.18945H453.494Z" fill="#FEC3E9"/>
<path d="M364.414 108.707H218.885V3.18945H296.818V65.3436H364.414V108.707Z" fill="#FEC3E9"/>
<path d="M126.238 65.4884H96.4165V47.5649H204.768V108.707H171.964L150.095 79.3647C143.535 100.035 120.671 111.598 80.5117 111.598C29.6163 111.598 -1.00049 89.1937 -1.00049 59.5621V54.0694C-1.00049 23.2814 30.6103 0.298828 104.767 0.298828C173.555 0.298828 201.587 20.6796 204.768 43.084H123.455C121.665 40.9158 117.093 37.4468 102.381 37.4468C85.0843 37.4468 77.1319 43.3731 77.1319 55.3703V56.5266C77.1319 68.5238 84.8855 74.1611 102.182 74.1611C118.286 74.1611 124.846 69.5356 126.238 65.4884Z" fill="#FEC3E9"/>
</svg>
