<svg viewBox="0 0 447 200" fill="none" xmlns="http://www.w3.org/2000/svg">
<path d="M104.221 99.5945H104.206V99.5195C86.498 102.417 68.789 105.058 50.914 106.809V129.161C57.17 128.557 60.291 128.21 66.532 127.44C64.896 133.417 57.958 136.737 52.55 137.281C41.34 138.398 34.781 128.995 34.781 118.566C34.781 107.141 41.583 96.2145 53.929 94.9465C59.473 94.3875 64.381 96.3045 67.032 100.757C77.878 95.4745 88.649 89.9655 99.283 84.2755C91.436 68.3225 68.032 64.9125 52.656 66.2095C24.556 68.5945 0.0300278 88.6675 2.78204e-05 118.43C-0.0299722 147.197 24.207 166.983 52.414 163.904C58.398 163.255 64.215 161.655 69.698 159.256V199.432C90.981 196.67 112.174 193.108 133.2 188.822V158.441C121.611 160.78 115.81 161.882 104.221 163.874V99.5945Z" fill="#272323"/>
<path d="M107.66 65.1685V159.814C121.475 157.384 128.368 156.026 142.183 153.143V58.4975C128.368 61.3805 121.475 62.7385 107.66 65.1685Z" fill="#272323"/>
<path d="M302.393 90.858C313.027 88.624 318.344 87.552 328.979 85.56V60.959C318.344 62.951 313.027 64.008 302.393 66.257V57.216C314.042 54.771 319.859 53.594 331.508 51.451V25.597C321.268 27.468 311.058 29.521 300.863 31.679V0C287.563 2.807 280.897 4.316 267.597 7.395V39.285C259.129 41.247 254.903 42.243 246.435 44.251V12.361C233.134 15.53 226.484 17.145 213.169 20.33V69.321C209.503 69.622 205.776 70.196 202.11 71.071C194.218 72.958 186.811 76.61 180.251 81.198V45.716C187.856 44.312 191.673 43.588 199.278 42.124V11.365C181.493 15.591 163.679 19.726 145.804 23.499C134.912 25.793 126.701 27.393 126.701 27.393V58C134.5 56.5 139.5 55.5 145.727 54.398V118.175C149.317 117.421 152.438 116.757 155.331 116.123C153.71 121.39 152.71 126.808 152.468 132.166C151.302 158.126 176.599 175.014 200.731 169.068C206.836 167.559 219.757 163.378 225.302 159.408C225.711 145.146 225.908 138.022 226.317 123.76C220.772 130.491 214.471 135.396 206.533 137.298C202.988 138.143 199.595 138.007 196.686 137.026C191.112 135.155 187.249 130.25 187.264 123.413C187.264 113.119 195.702 102.977 206.033 100.517C208.502 99.928 210.895 99.793 213.183 100.019V114.976C226.483 111.791 233.133 110.161 246.449 107.007V74.12C254.917 72.113 259.143 71.101 267.611 69.155V102.041H267.626V133.736C289.198 128.831 310.784 124.212 332.522 120.092V94.238C320.479 96.442 314.45 97.649 302.407 100.185V90.903L302.392 90.858H302.393Z" fill="#272323"/>
<path d="M398.828 98.4175V97.6635C411.674 92.2145 416.991 85.7395 417.218 71.6585C417.582 49.9095 397.343 38.9825 377.666 42.4845C363.699 44.3865 349.853 46.5295 335.962 48.8985V143.544C349.474 141.129 356.231 140.028 369.728 138.171V107.79C369.985 107.759 370.107 107.744 370.364 107.699C376.408 119.034 379.438 124.724 385.482 136.179C398.661 134.624 412.022 133.523 425.292 132.994C417.021 121.056 412.901 115.17 404.63 103.549C402.736 100.938 400.6 99.6255 398.828 98.4025V98.4175ZM382.483 80.1105C380.62 83.5365 376.363 84.5625 372.121 85.1215C371.167 85.2415 370.682 85.3175 369.728 85.4375V69.3645C370.788 69.2135 371.318 69.1535 372.379 69.0025C378.302 68.2175 383.467 68.4885 383.467 75.7785C383.467 77.5295 383.119 78.9485 382.498 80.0955L382.483 80.1105Z" fill="#272323"/>
<path d="M427.958 84.2455C418.763 84.6075 409.19 91.2035 409.19 101.255C409.19 111.17 418.763 116.106 427.958 115.759C437.154 115.411 446.727 109.737 446.727 99.8215C446.727 89.9055 437.154 83.8985 427.958 84.2455Z" fill="#272323"/>
</svg>

