<svg viewBox="0 0 447 200" fill="none" xmlns="http://www.w3.org/2000/svg">
<path d="M104.221 99.596H104.206V99.521C86.498 102.419 68.789 105.06 50.914 106.811V129.163C57.17 128.559 60.291 128.212 66.532 127.442C64.896 133.419 57.958 136.739 52.55 137.283C41.34 138.4 34.781 128.997 34.781 118.568C34.781 107.143 41.583 96.216 53.929 94.948C59.473 94.389 64.381 96.306 67.032 100.759C77.878 95.476 88.649 89.967 99.283 84.277C91.436 68.324 68.032 64.914 52.656 66.211C24.556 68.596 0.0300278 88.669 2.78203e-05 118.432C-0.0299722 147.199 24.207 166.985 52.414 163.906C58.398 163.257 64.215 161.657 69.698 159.258V199.434C90.981 196.672 112.174 193.11 133.2 188.824V158.443C121.611 160.782 115.81 161.884 104.221 163.876V99.596Z" fill="#CC2323"/>
<path d="M107.66 65.17V159.816C121.475 157.386 128.368 156.028 142.183 153.145V58.499C128.368 61.382 121.475 62.74 107.66 65.17Z" fill="#CC2323"/>
<path d="M302.393 90.858C313.027 88.624 318.344 87.552 328.979 85.56V60.959C318.344 62.951 313.027 64.008 302.393 66.257V57.216C314.042 54.771 319.859 53.594 331.508 51.451V25.597C321.268 27.468 311.058 29.521 300.863 31.679V0C287.563 2.807 280.897 4.316 267.597 7.395V39.285C259.129 41.247 254.903 42.243 246.435 44.251V12.361C233.134 15.53 226.484 17.145 213.169 20.33V69.321C209.503 69.622 205.776 70.196 202.11 71.071C194.218 72.958 186.811 76.61 180.251 81.198V45.716C187.856 44.312 191.673 43.588 199.278 42.124V11.365C181.493 15.591 163.679 19.726 145.804 23.499C134.912 25.793 126.701 27.393 126.701 27.393V58.152C134.305 56.311 138.123 55.36 145.727 53.398V118.175C149.317 117.421 152.438 116.757 155.331 116.123C153.71 121.39 152.71 126.808 152.468 132.166C151.302 158.126 176.599 175.014 200.731 169.068C206.836 167.559 219.757 163.378 225.302 159.408C225.711 145.146 225.908 138.022 226.317 123.76C220.772 130.491 214.471 135.396 206.533 137.298C202.988 138.143 199.595 138.007 196.686 137.026C191.112 135.155 187.249 130.25 187.264 123.413C187.264 113.119 195.702 102.977 206.033 100.517C208.502 99.928 210.895 99.793 213.183 100.019V114.976C226.483 111.791 233.133 110.161 246.449 107.007V74.12C254.917 72.113 259.143 71.101 267.611 69.155V102.041H267.626V133.736C289.198 128.831 310.784 124.212 332.522 120.092V94.238C320.479 96.442 314.45 97.649 302.407 100.185V90.903L302.392 90.858H302.393Z" fill="#CC2323"/>
<path d="M398.828 98.419V97.665C411.674 92.216 416.991 85.741 417.218 71.66C417.582 49.911 397.343 38.984 377.666 42.486C363.699 44.388 349.853 46.531 335.962 48.9V143.546C349.474 141.131 356.231 140.03 369.728 138.173V107.792C369.985 107.761 370.107 107.746 370.364 107.701C376.408 119.036 379.438 124.726 385.482 136.181C398.661 134.626 412.022 133.525 425.292 132.996C417.021 121.058 412.901 115.172 404.63 103.551C402.736 100.94 400.6 99.627 398.828 98.404V98.419ZM382.483 80.112C380.62 83.538 376.363 84.564 372.121 85.123C371.167 85.243 370.682 85.319 369.728 85.439V69.366C370.788 69.215 371.318 69.155 372.379 69.004C378.302 68.219 383.467 68.49 383.467 75.78C383.467 77.531 383.119 78.95 382.498 80.097L382.483 80.112Z" fill="#CC2323"/>
<path d="M427.958 84.247C418.763 84.609 409.19 91.205 409.19 101.257C409.19 111.172 418.763 116.108 427.958 115.761C437.154 115.413 446.727 109.739 446.727 99.823C446.727 89.907 437.154 83.9 427.958 84.247Z" fill="#CC2323"/>
</svg>
